<svg xmlns="http://www.w3.org/2000/svg" width="18.504" height="16.963" viewBox="0 0 18.504 16.963"><g transform="translate(0 -21.322)"><g transform="translate(0 21.322)"><g transform="translate(0 0)"><path className="a" d="M156.271,23.635h-4.315l1-1a.771.771,0,1,0-1.09-1.09l-2.313,2.313c-.018.018-.035.037-.051.056l-.021.027c-.008.011-.017.022-.024.033s-.014.022-.02.034l-.018.031c-.006.011-.011.023-.017.035s-.011.022-.016.033-.008.023-.013.034-.009.024-.013.037-.006.023-.009.035-.007.025-.009.038,0,.027-.006.041,0,.022,0,.034,0,.05,0,.075h0q0,.038,0,.075c0,.011,0,.023,0,.034s0,.027.006.041.006.026.009.038.005.023.009.035.008.025.013.037.008.023.013.034.01.022.016.034.011.023.017.035.012.021.018.031.013.023.02.034.016.022.024.033l.02.027q.024.029.051.057l2.313,2.313a.771.771,0,1,0,1.09-1.09l-1-1h4.307a4.622,4.622,0,0,1,4.626,4.626,4.184,4.184,0,0,1-1.233,2.965.771.771,0,0,0,1.091,1.09A5.725,5.725,0,0,0,162.43,29.8,6.164,6.164,0,0,0,156.271,23.635Z" transform="translate(-143.926 -21.322)"></path><path className="a" d="M12.953,147.679c.008-.011.017-.022.024-.033s.014-.022.02-.034.013-.02.018-.031.011-.023.017-.035.011-.022.015-.033.009-.023.013-.035.009-.024.013-.037.006-.023.009-.035.007-.025.009-.038,0-.027.006-.041,0-.022,0-.034a.776.776,0,0,0,0-.152c0-.011,0-.022,0-.034s0-.027-.006-.041-.006-.025-.009-.038-.005-.023-.009-.035-.008-.024-.013-.037-.008-.023-.013-.035-.01-.022-.015-.033-.011-.024-.017-.035L13,146.824c-.007-.011-.013-.023-.02-.034s-.016-.022-.024-.033l-.021-.028q-.024-.029-.05-.056h0l-2.313-2.313a.771.771,0,0,0-1.09,1.09l1,1H6.168a4.622,4.622,0,0,1-4.626-4.626,4.184,4.184,0,0,1,1.233-2.965.771.771,0,0,0-1.091-1.09A5.725,5.725,0,0,0,0,141.821a6.164,6.164,0,0,0,6.16,6.168h4.315l-1,1a.771.771,0,1,0,1.09,1.09l2.313-2.313h0c.018-.018.035-.037.051-.056Z" transform="translate(0 -133.339)"></path></g></g></g></svg>